<?xml version="1.0" encoding="utf-8"?>
<!-- Generator: Adobe Illustrator 23.0.1, SVG Export Plug-In . SVG Version: 6.00 Build 0)  -->
<svg version="1.1" id="Layer_1" xmlns="http://www.w3.org/2000/svg" xmlns:xlink="http://www.w3.org/1999/xlink" x="0px" y="0px"
	 viewBox="0 0 489 500" style="enable-background:new 0 0 489 500;" xml:space="preserve">
<style type="text/css">
	.st0{fill:#FFBB22;stroke:#020202;stroke-width:18.394;stroke-miterlimit:10;}
	.st1{fill:none;stroke:#000000;stroke-width:17.6079;stroke-miterlimit:10;}
	.st2{fill:none;stroke:#020202;stroke-width:18.394;stroke-miterlimit:10;}
	.st3{fill:#C3E100;stroke:#020202;stroke-width:18.394;stroke-miterlimit:10;}
	.st4{fill:#1EC5FF;}
</style>
<polygon class="st0" points="76.5,317.3 133.73,400.93 292.2,295.29 331.81,167.63 270.19,79.59 119.42,183.27 "/>
<line class="st1" x1="309.8" y1="242.46" x2="370.8" y2="404"/>
<polyline class="st2" points="85.3,317.3 234.97,220.45 270.19,79.59 "/>
<line class="st3" x1="287.8" y1="290.88" x2="234.97" y2="220.45"/>
<g>
	<polygon class="st4" points="226.26,388.62 296.22,336.97 299.83,388.62 	"/>
	<path d="M290.93,348.43l2.39,34.12h-48.6L290.93,348.43 M301.51,325.51l-17.79,13.14l-46.21,34.12l-29.7,21.92h36.91h48.6h13.03
		l-0.91-13l-2.39-34.12L301.51,325.51L301.51,325.51z"/>
</g>
</svg>
