<?xml version="1.0" encoding="utf-8"?>
<!-- Generator: Adobe Illustrator 23.0.1, SVG Export Plug-In . SVG Version: 6.00 Build 0)  -->
<svg version="1.1" id="Layer_1" xmlns="http://www.w3.org/2000/svg" xmlns:xlink="http://www.w3.org/1999/xlink" x="0px" y="0px"
	 viewBox="0 0 344 335" style="enable-background:new 0 0 344 335;" xml:space="preserve">
<style type="text/css">
	.st0{fill:#804FED;}
	.st1{fill:#020202;}
</style>
<g>
	<rect x="58.06" y="127.84" class="st0" width="220.95" height="126.26"/>
</g>
<g>
	<path class="st1" d="M283.53,56.58L59.89,54.85l-5.49-0.04v0l-0.26,0l-1.3,207.42L282.22,264l0.8-127.14l0.02,0l0.48-80.2h0
		L283.53,56.58z M66.48,69.06l204.77,1.65l-0.32,51.89l-204.76-1.66L66.48,69.06z M270.13,250.38l-205.02-1.58l0.71-113.7
		l205.02,1.67L270.13,250.38z"/>
</g>
<g>
	<rect x="128.6" y="128.26" class="st1" width="13.53" height="125.84"/>
</g>
<g>
	<rect x="200.74" y="128.26" class="st1" width="13.53" height="125.84"/>
</g>
<g>
	<rect x="64.83" y="166.38" class="st1" width="209.68" height="13.53"/>
</g>
<g>
	<rect x="64.83" y="211.47" class="st1" width="209.68" height="13.53"/>
</g>
</svg>
