<?xml version="1.0" encoding="utf-8"?>
<!-- Generator: Adobe Illustrator 23.0.1, SVG Export Plug-In . SVG Version: 6.00 Build 0)  -->
<svg version="1.1" id="Layer_1" xmlns="http://www.w3.org/2000/svg" xmlns:xlink="http://www.w3.org/1999/xlink" x="0px" y="0px"
	 viewBox="0 0 489 500" style="enable-background:new 0 0 489 500;" xml:space="preserve">
<style type="text/css">
	.st0{fill:#FFFFFF;}
	.st1{fill:#18C68C;}
</style>
<g>
	<g>
		<polygon class="st0" points="244.86,321.7 84.53,321.41 164.95,182.7 245.37,44 325.29,183 405.2,322 		"/>
		<path d="M410.39,325.01L79.33,324.4L245.39,38L410.39,325.01z M244.87,318.71l155.14,0.29L245.36,50L89.73,318.42L244.87,318.71z"
			/>
	</g>
</g>
<g>
	<polygon class="st1" points="245.12,118.85 202.33,118.85 223.72,81.8 245.12,44.75 266.51,81.8 287.9,118.85 	"/>
	<path d="M293.1,121.85h-95.96l47.98-83.1L293.1,121.85z M207.53,115.85h75.18l-37.59-65.1L207.53,115.85z"/>
</g>
<g>
	<polygon class="st1" points="84.84,320.88 404.89,321.47 341.23,213.92 299.31,257.33 242.61,213.25 181.05,258.83 149.61,213.92 	
		"/>
	<path d="M410.16,324.48l-330.64-0.61l69.91-115.45l32.31,46.16l60.91-45.1l56.38,43.83L341.81,209L410.16,324.48z M90.15,317.89
		l309.47,0.57l-58.97-99.63l-41.05,42.52l-57.04-44.34l-62.21,46.06l-30.57-43.66L90.15,317.89z"/>
</g>
<g>
	<path d="M87.92,388.25l-0.05-22.84l-11.32,18.9H73.7l-11.32-18.61v22.54h-6.1V353.8h5.27l13.68,22.84l13.44-22.84h5.27l0.05,34.46
		H87.92z"/>
	<path d="M103.97,356.58c-0.76-0.71-1.13-1.58-1.13-2.63s0.38-1.93,1.13-2.63c0.75-0.71,1.69-1.06,2.81-1.06
		c1.12,0,2.05,0.34,2.81,1.01c0.75,0.67,1.13,1.52,1.13,2.53c0,1.08-0.37,1.99-1.11,2.73s-1.68,1.11-2.83,1.11
		C105.66,357.64,104.72,357.28,103.97,356.58z M103.67,361.97h6.15v26.28h-6.15V361.97z"/>
	<path d="M141.77,364.58c2,1.94,3,4.81,3,8.61v15.06h-6.15v-14.27c0-2.3-0.54-4.03-1.62-5.19c-1.08-1.16-2.63-1.75-4.63-1.75
		c-2.26,0-4.05,0.68-5.36,2.04c-1.31,1.36-1.97,3.32-1.97,5.88v13.29h-6.15v-26.28h5.86v3.4c1.02-1.21,2.3-2.13,3.84-2.76
		c1.54-0.62,3.28-0.93,5.22-0.93C137.11,361.67,139.77,362.64,141.77,364.58z"/>
	<path d="M176.47,364.58c2,1.94,3,4.81,3,8.61v15.06h-6.15v-14.27c0-2.3-0.54-4.03-1.62-5.19c-1.08-1.16-2.63-1.75-4.63-1.75
		c-2.26,0-4.05,0.68-5.36,2.04c-1.31,1.36-1.97,3.32-1.97,5.88v13.29h-6.15v-36.52h6.15v13.29c1.02-1.08,2.27-1.91,3.77-2.49
		c1.49-0.57,3.16-0.86,5-0.86C171.81,361.67,174.47,362.64,176.47,364.58z"/>
	<path d="M207.21,364.45c2.05,1.85,3.08,4.65,3.08,8.39v15.41h-5.81v-3.2c-0.76,1.15-1.83,2.03-3.22,2.63
		c-1.4,0.61-3.08,0.91-5.04,0.91c-1.97,0-3.69-0.34-5.17-1.01c-1.48-0.67-2.62-1.61-3.42-2.81c-0.8-1.2-1.21-2.55-1.21-4.06
		c0-2.36,0.88-4.26,2.63-5.68s4.52-2.14,8.29-2.14h6.79v-0.39c0-1.84-0.55-3.25-1.65-4.23c-1.1-0.98-2.73-1.48-4.9-1.48
		c-1.48,0-2.93,0.23-4.36,0.69c-1.43,0.46-2.63,1.1-3.62,1.92l-2.41-4.48c1.38-1.05,3.04-1.85,4.97-2.41
		c1.94-0.56,3.99-0.84,6.15-0.84C202.19,361.67,205.16,362.6,207.21,364.45z M201.6,383.06c1.2-0.71,2.04-1.71,2.53-3.03v-3.05
		h-6.35c-3.54,0-5.32,1.17-5.32,3.49c0,1.12,0.44,2,1.33,2.66c0.89,0.66,2.12,0.98,3.69,0.98
		C199.03,384.12,200.4,383.77,201.6,383.06z"/>
	<path d="M233.59,387.44c-1.85-0.87-3.37-2.09-4.55-3.67l3.64-4.38c1.9,2.62,4.18,3.94,6.84,3.94c3.58,0,5.37-2.12,5.37-6.35v-17.82
		h-12.26v-5.37h18.65v22.84c0,4.04-0.98,7.06-2.95,9.08c-1.97,2.02-4.86,3.03-8.66,3.03C237.47,388.74,235.44,388.31,233.59,387.44z
		"/>
	<path d="M265.26,386.87c-2.13-1.15-3.8-2.75-5-4.8c-1.2-2.05-1.8-4.37-1.8-6.96s0.6-4.91,1.8-6.94c1.2-2.03,2.86-3.63,5-4.77
		c2.13-1.15,4.53-1.72,7.19-1.72c2.69,0,5.1,0.57,7.24,1.72c2.13,1.15,3.8,2.74,5,4.77c1.2,2.04,1.8,4.35,1.8,6.94
		s-0.6,4.91-1.8,6.96c-1.2,2.05-2.86,3.65-5,4.8c-2.13,1.15-4.54,1.72-7.24,1.72C269.79,388.6,267.39,388.02,265.26,386.87z
		 M278.06,381.07c1.48-1.51,2.21-3.49,2.21-5.96c0-2.46-0.74-4.45-2.21-5.96c-1.48-1.51-3.35-2.26-5.61-2.26s-4.13,0.76-5.59,2.26
		c-1.46,1.51-2.19,3.49-2.19,5.96c0,2.46,0.73,4.45,2.19,5.96c1.46,1.51,3.32,2.26,5.59,2.26S276.58,382.58,278.06,381.07z"/>
	<path d="M308.58,361.67v5.86c-0.53-0.1-1-0.15-1.43-0.15c-2.4,0-4.27,0.7-5.61,2.09c-1.35,1.39-2.02,3.4-2.02,6.03v12.75h-6.15
		v-26.28h5.86v3.84C301,363.05,304.11,361.67,308.58,361.67z"/>
	<path d="M337.67,364.58c2,1.94,3,4.81,3,8.61v15.06h-6.15v-14.27c0-2.3-0.54-4.03-1.62-5.19c-1.08-1.16-2.63-1.75-4.63-1.75
		c-2.26,0-4.05,0.68-5.36,2.04c-1.31,1.36-1.97,3.32-1.97,5.88v13.29h-6.15v-26.28h5.86v3.4c1.02-1.21,2.3-2.13,3.84-2.76
		c1.54-0.62,3.28-0.93,5.22-0.93C333.01,361.67,335.66,362.64,337.67,364.58z"/>
	<path d="M368.4,364.45c2.05,1.85,3.08,4.65,3.08,8.39v15.41h-5.81v-3.2c-0.76,1.15-1.83,2.03-3.22,2.63
		c-1.4,0.61-3.08,0.91-5.04,0.91c-1.97,0-3.69-0.34-5.17-1.01c-1.48-0.67-2.62-1.61-3.42-2.81c-0.8-1.2-1.21-2.55-1.21-4.06
		c0-2.36,0.88-4.26,2.63-5.68s4.52-2.14,8.29-2.14h6.79v-0.39c0-1.84-0.55-3.25-1.65-4.23c-1.1-0.98-2.73-1.48-4.9-1.48
		c-1.48,0-2.93,0.23-4.36,0.69c-1.43,0.46-2.63,1.1-3.62,1.92l-2.41-4.48c1.38-1.05,3.04-1.85,4.97-2.41
		c1.94-0.56,3.99-0.84,6.15-0.84C363.39,361.67,366.35,362.6,368.4,364.45z M362.79,383.06c1.2-0.71,2.04-1.71,2.53-3.03v-3.05
		h-6.35c-3.54,0-5.32,1.17-5.32,3.49c0,1.12,0.44,2,1.33,2.66c0.89,0.66,2.12,0.98,3.69,0.98
		C360.22,384.12,361.59,383.77,362.79,383.06z"/>
	<path d="M406.33,351.73v36.52h-5.91v-3.4c-1.02,1.25-2.27,2.18-3.77,2.81c-1.49,0.62-3.14,0.94-4.95,0.94
		c-2.53,0-4.8-0.56-6.82-1.67c-2.02-1.12-3.6-2.7-4.75-4.75c-1.15-2.05-1.72-4.41-1.72-7.06c0-2.66,0.57-5,1.72-7.04
		c1.15-2.03,2.73-3.61,4.75-4.73c2.02-1.11,4.29-1.67,6.82-1.67c1.74,0,3.33,0.29,4.77,0.89c1.44,0.59,2.67,1.48,3.69,2.66v-13.49
		H406.33z M396.43,382.32c1.18-0.67,2.12-1.63,2.81-2.88s1.03-2.69,1.03-4.33s-0.34-3.08-1.03-4.33c-0.69-1.25-1.62-2.21-2.81-2.88
		s-2.51-1.01-3.99-1.01s-2.81,0.34-3.99,1.01c-1.18,0.67-2.12,1.63-2.81,2.88c-0.69,1.25-1.03,2.69-1.03,4.33s0.34,3.08,1.03,4.33
		s1.62,2.21,2.81,2.88c1.18,0.67,2.51,1.01,3.99,1.01S395.25,382.99,396.43,382.32z"/>
	<path d="M434.31,364.45c2.05,1.85,3.08,4.65,3.08,8.39v15.41h-5.81v-3.2c-0.76,1.15-1.83,2.03-3.22,2.63
		c-1.4,0.61-3.08,0.91-5.04,0.91c-1.97,0-3.69-0.34-5.17-1.01c-1.48-0.67-2.62-1.61-3.42-2.81c-0.8-1.2-1.21-2.55-1.21-4.06
		c0-2.36,0.88-4.26,2.63-5.68s4.52-2.14,8.29-2.14h6.79v-0.39c0-1.84-0.55-3.25-1.65-4.23c-1.1-0.98-2.73-1.48-4.9-1.48
		c-1.48,0-2.93,0.23-4.36,0.69c-1.43,0.46-2.63,1.1-3.62,1.92l-2.41-4.48c1.38-1.05,3.04-1.85,4.97-2.41
		c1.94-0.56,3.99-0.84,6.15-0.84C429.3,361.67,432.26,362.6,434.31,364.45z M428.7,383.06c1.2-0.71,2.04-1.71,2.53-3.03v-3.05h-6.35
		c-3.54,0-5.32,1.17-5.32,3.49c0,1.12,0.44,2,1.33,2.66c0.89,0.66,2.12,0.98,3.69,0.98C426.13,384.12,427.5,383.77,428.7,383.06z"/>
</g>
<g>
	<path d="M208.14,419.82h-11.42v-5.42h29.24v5.42h-11.42v29.04h-6.4V419.82z"/>
	<path d="M237.8,447.06c-2.81-1.53-5-3.63-6.6-6.32c-1.59-2.69-2.39-5.73-2.39-9.11c0-3.38,0.8-6.42,2.41-9.11
		c1.61-2.69,3.81-4.8,6.62-6.33c2.81-1.53,5.95-2.29,9.43-2.29c2.82,0,5.4,0.49,7.73,1.48c2.33,0.98,4.3,2.41,5.91,4.28l-4.13,3.89
		c-2.49-2.69-5.56-4.04-9.2-4.04c-2.36,0-4.48,0.52-6.35,1.55c-1.87,1.03-3.33,2.47-4.38,4.31c-1.05,1.84-1.58,3.92-1.58,6.25
		c0,2.33,0.52,4.41,1.58,6.25c1.05,1.84,2.51,3.27,4.38,4.31c1.87,1.03,3.99,1.55,6.35,1.55c3.64,0,6.71-1.36,9.2-4.08l4.13,3.94
		c-1.61,1.87-3.59,3.3-5.93,4.28c-2.35,0.98-4.93,1.48-7.75,1.48C243.74,449.35,240.6,448.59,237.8,447.06z"/>
	<path d="M273.83,447.06c-2.81-1.53-5-3.63-6.6-6.32c-1.59-2.69-2.39-5.73-2.39-9.11c0-3.38,0.8-6.42,2.41-9.11
		c1.61-2.69,3.81-4.8,6.62-6.33c2.81-1.53,5.95-2.29,9.43-2.29c2.82,0,5.4,0.49,7.73,1.48c2.33,0.98,4.3,2.41,5.91,4.28l-4.13,3.89
		c-2.49-2.69-5.56-4.04-9.2-4.04c-2.36,0-4.48,0.52-6.35,1.55c-1.87,1.03-3.33,2.47-4.38,4.31c-1.05,1.84-1.58,3.92-1.58,6.25
		c0,2.33,0.52,4.41,1.58,6.25c1.05,1.84,2.51,3.27,4.38,4.31c1.87,1.03,3.99,1.55,6.35,1.55c3.64,0,6.71-1.36,9.2-4.08l4.13,3.94
		c-1.61,1.87-3.59,3.3-5.93,4.28c-2.35,0.98-4.93,1.48-7.75,1.48C279.77,449.35,276.63,448.59,273.83,447.06z"/>
</g>
</svg>
