<?xml version="1.0" encoding="utf-8"?>
<!-- Generator: Adobe Illustrator 23.0.1, SVG Export Plug-In . SVG Version: 6.00 Build 0)  -->
<svg version="1.1" id="Layer_1" xmlns="http://www.w3.org/2000/svg" xmlns:xlink="http://www.w3.org/1999/xlink" x="0px" y="0px"
	 viewBox="0 0 344 335" style="enable-background:new 0 0 344 335;" xml:space="preserve">
<style type="text/css">
	.st0{fill:#FFFFFF;stroke:#020202;stroke-width:21.3305;stroke-miterlimit:10;}
	.st1{fill:#020202;}
</style>
<circle class="st0" cx="166.75" cy="169.5" r="134.48"/>
<circle class="st1" cx="121.17" cy="125.7" r="20.96"/>
<circle class="st1" cx="207.24" cy="125.7" r="20.96"/>
<g>
	<path class="st1" d="M206.25,196.06c0.31,21.24-16.65,38.7-37.89,39.01c-0.19,0-0.38,0-0.57,0c-20.98,0-38.13-16.85-38.44-37.89
		L206.25,196.06 M223.76,178.03l-17.77,0.26l-76.9,1.12l-17.77,0.26l0.26,17.77c0.22,14.87,6.17,28.81,16.77,39.25
		c10.59,10.42,24.59,16.16,39.44,16.16c0.28,0,0.55,0,0.83-0.01c31-0.45,55.85-26.04,55.4-57.04L223.76,178.03L223.76,178.03z"/>
</g>
</svg>
