<?xml version="1.0" encoding="utf-8"?>
<!-- Generator: Adobe Illustrator 23.0.1, SVG Export Plug-In . SVG Version: 6.00 Build 0)  -->
<svg version="1.1" id="Layer_1" xmlns="http://www.w3.org/2000/svg" xmlns:xlink="http://www.w3.org/1999/xlink" x="0px" y="0px"
	 viewBox="0 0 286 259" style="enable-background:new 0 0 286 259;" xml:space="preserve">
<style type="text/css">
	.st0{fill:#1EC5FF;}
	.st1{fill:#FFFFFF;}
</style>
<g>
	<rect x="11.96" y="90.41" class="st0" width="258.98" height="147.99"/>
</g>
<g>
	<path class="st1" d="M276.23,6.88L14.11,4.86L7.67,4.8v0l-0.3,0L5.84,247.92L274.7,250l0.94-149.02l0.03,0l0.57-94h0L276.23,6.88z
		 M21.83,21.51l240.01,1.94l-0.38,60.82L21.47,82.33L21.83,21.51z M260.52,234.03l-240.3-1.85l0.83-133.27l240.3,1.95L260.52,234.03
		z"/>
</g>
<g>
	<rect x="94.63" y="90.9" class="st1" width="15.86" height="147.49"/>
</g>
<g>
	<rect x="179.2" y="90.9" class="st1" width="15.86" height="147.49"/>
</g>
<g>
	<rect x="19.89" y="135.58" class="st1" width="245.76" height="15.86"/>
</g>
<g>
	<rect x="19.89" y="188.43" class="st1" width="245.76" height="15.86"/>
</g>
</svg>
