<?xml version="1.0" encoding="utf-8"?>
<!-- Generator: Adobe Illustrator 23.0.1, SVG Export Plug-In . SVG Version: 6.00 Build 0)  -->
<svg version="1.1" id="Layer_1" xmlns="http://www.w3.org/2000/svg" xmlns:xlink="http://www.w3.org/1999/xlink" x="0px" y="0px"
	 viewBox="0 0 546 297" style="enable-background:new 0 0 546 297;" xml:space="preserve">
<style type="text/css">
	.st0{fill:#FFFFFF;}
	.st1{fill:#F42D22;}
</style>
<g>
	<g>
		<path class="st0" d="M132.18,285.9L14.6,216.42L95.69,27.22l71.69,66.57l103.58-65.92l104.67,71.36l80.87-50.54L527,216.79
			l-127.56,69.09L270.6,223.85L132.18,285.9z M270.93,200.08l127.94,61.6l100.71-54.55L446.43,80.41l-71.31,44.56L270.56,53.68
			l-105.65,67.23l-61.46-57.07L41.89,207.5l91.65,54.16L270.93,200.08z"/>
	</g>
	<g>
		
			<rect x="376.49" y="111.23" transform="matrix(0.9894 -0.1455 0.1455 0.9894 -23.9498 58.3943)" class="st0" width="21.56" height="163.42"/>
	</g>
	<g>
		<rect x="259.99" y="40.77" class="st0" width="21.56" height="171.19"/>
	</g>
	<g>
		
			<rect x="66.97" y="182.17" transform="matrix(0.2019 -0.9794 0.9794 0.2019 -69.6466 300.4191)" class="st0" width="165.07" height="21.55"/>
	</g>
</g>
<g>
	<path class="st1" d="M382.79,105.55c6.33-13.62,13.59-20.77,13.59-33.94c0-27.25-22.09-49.33-49.33-49.33s-49.33,22.09-49.33,49.33
		c0,9.61,2.9,15.96,7.54,26.12l38.89,75.45L382.79,105.55z"/>
	<path class="st0" d="M343.66,195.76l-47.99-93.09c-5.18-11.33-8.74-19.13-8.74-31.06c0-33.15,26.97-60.11,60.11-60.11
		s60.11,26.96,60.11,60.11c0,12.04-4.69,20.34-9.24,28.37c-1.78,3.15-3.63,6.4-5.35,10.11l-0.41,0.8L343.66,195.76z M347.05,33.06
		c-21.26,0-38.55,17.29-38.55,38.55c0,7.25,2.18,12.04,6.54,21.59l29.6,57.41l28.58-50.02c2.03-4.31,4.11-7.98,5.94-11.22
		c4.01-7.1,6.44-11.38,6.44-17.75C385.6,50.35,368.3,33.06,347.05,33.06z"/>
</g>
</svg>
